<?xml version="1.0" encoding="UTF-8"?><svg id="Layer_1" xmlns="http://www.w3.org/2000/svg" xmlns:xlink="http://www.w3.org/1999/xlink" viewBox="0 0 447.08 115.41"><defs><style>.cls-1{fill:url(#New_Gradient_Swatch_2-2);}.cls-2{fill:url(#New_Gradient_Swatch_2);}</style><linearGradient id="New_Gradient_Swatch_2" x1="60.53" y1="-5.78" x2="-3.4" y2="104.29" gradientUnits="userSpaceOnUse"><stop offset="0" stop-color="#52ffd8"/><stop offset="1" stop-color="#0091eb"/></linearGradient><linearGradient id="New_Gradient_Swatch_2-2" x1="38.32" y1="121.16" x2="101.84" y2="11.64" xlink:href="#New_Gradient_Swatch_2"/></defs><path d="M149.29,54.36v9.96h-24.1v6.07c.04,1.02.83,1.81,1.85,1.85h22.25v3.88h-22.25c-3.17,0-5.73-2.56-5.73-5.73h0v-16.03c0-3.17,2.56-5.73,5.73-5.73h16.48c3.17-.04,5.73,2.53,5.77,5.73t0,0ZM145.33,60.43v-6.07c0-1.02-.83-1.85-1.85-1.85h-16.48c-1.02.04-1.81.83-1.85,1.85v6.07h20.18Z"/><path d="M157.03,39.65v30.74c.04,1.02.83,1.81,1.85,1.85h4.64v3.88h-4.64c-3.17,0-5.73-2.56-5.73-5.73h0v-30.74h3.88Z"/><path d="M194.67,54.36v9.96h-24.1v6.07c.04,1.02.83,1.81,1.85,1.85h22.25v3.88h-22.25c-3.17,0-5.73-2.56-5.73-5.73h0v-16.03c0-3.17,2.56-5.73,5.73-5.73h16.48c3.17-.04,5.77,2.53,5.77,5.73t0,0ZM190.78,60.43v-6.07c0-1.02-.83-1.85-1.85-1.85h-16.48c-1.02.04-1.81.83-1.85,1.85v6.07h20.18Z"/><path d="M226.5,72.23v3.88h-22.25c-3.17,0-5.73-2.56-5.73-5.73h0v-16.03c0-3.17,2.56-5.73,5.73-5.73h22.18v3.88h-22.18c-1.02.04-1.81.83-1.85,1.85v16.03c.04,1.02.83,1.81,1.85,1.85h22.25Z"/><path d="M234.23,52.51v17.84c.04,1.02.83,1.81,1.85,1.85h10.03v3.88h-10.03c-3.17,0-5.7-2.56-5.73-5.7v-30.78h3.92v9.01h11.88v3.88h-11.92Z"/><path d="M270.89,48.62v3.88h-15.43c-1.02.04-1.81.83-1.85,1.85v21.72h-3.88v-21.72c0-3.17,2.56-5.73,5.73-5.73h15.43Z"/><path d="M295.9,48.62c3.17,0,5.77,2.53,5.77,5.7v16.07c0,3.17-2.56,5.73-5.73,5.73h-16.52c-3.17,0-5.73-2.56-5.73-5.73h0v-16.03c0-3.17,2.56-5.73,5.73-5.73h16.48ZM279.42,52.51c-1.02.04-1.81.83-1.85,1.85v16.03c.04,1.02.83,1.81,1.85,1.85h16.48c1.02,0,1.85-.83,1.85-1.85v-16.03c0-1.02-.83-1.85-1.85-1.85h-16.48Z"/><path d="M333.88,54.36v21.72h-3.88v-21.72c-.04-1.02-.83-1.81-1.85-1.85h-16.48c-1.02,0-1.85.83-1.89,1.85v21.72h-3.88v-27.46h22.25c3.17,0,5.73,2.53,5.73,5.7v.04Z"/><path d="M366.73,54.36v9.96h-24.1v6.07c.04,1.02.83,1.81,1.85,1.85h22.25v3.88h-22.25c-3.17,0-5.73-2.56-5.73-5.73h0v-16.03c0-3.17,2.56-5.73,5.73-5.73h16.48c3.17-.04,5.77,2.53,5.77,5.73t0,0ZM362.81,60.43v-6.07c0-1.02-.83-1.85-1.85-1.85h-16.48c-1.02.04-1.81.83-1.85,1.85v6.07h20.18Z"/><path d="M399.58,48.62v21.72c0,3.17-2.56,5.73-5.73,5.73h-16.52c-3.17,0-5.73-2.56-5.73-5.73h0v-21.72h3.88v21.72c.04,1.02.83,1.81,1.85,1.85h16.48c1.02,0,1.85-.83,1.89-1.85v-21.72h3.88Z"/><path d="M445.63,54.36v21.72h-3.85v-21.72c-.04-1.02-.87-1.85-1.89-1.85h-11.43c-1.02,0-1.85.83-1.85,1.85v21.72h-3.88v-21.72c-.04-1.02-.83-1.81-1.85-1.85h-11.47c-1.02.04-1.81.83-1.85,1.85v21.72h-3.92v-27.46h36.28c3.13,0,5.7,2.53,5.73,5.66-.04,0-.04.04-.04.08Z"/><path class="cls-2" d="M47.59,67.44l-6.93,1.59,14.27-20.18-8.52,1.85L78.65,4.91,26.53,60.42l14.41-3.05-20.23,21.19,13.72-2.94-8.18,16.27c-10.84-7.38-17.99-19.79-18.05-33.87-.09-22.7,18.31-41.23,41.01-41.32,4.77-.02,9.36.78,13.63,2.27l4.99-5.32c-5.74-2.41-12.04-3.73-18.65-3.7C22.77,10.05,1.36,31.62,1.45,58.04c.06,16.7,8.71,31.4,21.74,39.93l-8.31,16.54,32.71-47.08Z"/><path class="cls-1" d="M75.51,17.74L83.86,1.21l-32.24,45.79,8.52-1.85-14.27,20.18,6.93-1.59-32.71,47.08,51.45-56.43-12.32,2.62,17.63-20.76-11.94,2.53,7.56-14.97c10.86,7.38,18.03,19.8,18.08,33.89.09,22.7-18.31,41.23-41.01,41.32-4.88.02-9.57-.82-13.93-2.37l-4.87,5.35c5.79,2.45,12.15,3.8,18.83,3.78,26.42-.1,47.83-21.67,47.73-48.1-.06-16.71-8.73-31.42-21.77-39.94Z"/></svg>